<?xml version="1.0" encoding="UTF-8"?>
<svg viewBox="0 0 520 660" class="map" xmlns="http://www.w3.org/2000/svg" aria-label="Karte von Deutschland">
  <path class="region" data-state="Baden-Württemberg" d="M 218.8,443.3 L 218.1,450.3 L 219.9,450.9 L 222.1,447.5 L 223.1,450.9 L 226.2,447.5 L 228.3,449.6 L 228.2,453.5 L 230.6,457.4 L 228.9,458.4 L 229.2,460.2 L 227.8,461.7 L 229.8,462.6 L 230.6,459.8 L 232.7,459.2 L 231.8,461.3 L 233.3,461.3 L 232.8,466.8 L 233.7,467.7 L 237.8,467.6 L 240.3,462.4 L 241.8,463.6 L 241.3,465.4 L 243.3,465.4 L 242.2,466.6 L 243.4,469.0 L 242.0,470.5 L 244.0,471.1 L 245.5,474.7 L 242.6,476.0 L 243.6,478.3 L 242.4,479.3 L 244.5,480.1 L 243.9,482.8 L 245.0,483.9 L 242.8,485.9 L 244.0,486.1 L 244.3,489.7 L 243.4,490.4 L 250.2,495.0 L 247.6,498.7 L 250.0,499.2 L 250.0,503.4 L 255.3,504.2 L 255.4,506.3 L 260.6,511.7 L 259.8,511.7 L 260.6,513.5 L 259.2,514.1 L 260.6,515.3 L 260.6,518.4 L 259.2,518.9 L 260.3,522.0 L 258.3,525.0 L 262.6,532.0 L 258.2,534.0 L 259.7,531.3 L 258.0,531.0 L 255.1,534.6 L 254.5,531.5 L 251.0,530.3 L 250.1,533.6 L 253.6,538.2 L 252.2,538.4 L 253.0,545.1 L 248.7,545.9 L 249.2,547.5 L 245.8,550.3 L 243.5,550.7 L 242.4,548.9 L 238.6,550.5 L 238.9,552.9 L 235.3,557.0 L 240.2,565.0 L 241.1,573.2 L 244.0,579.9 L 243.8,586.6 L 241.0,591.5 L 242.4,593.4 L 242.1,597.9 L 240.7,598.9 L 242.1,599.2 L 241.3,600.7 L 242.1,600.1 L 243.5,603.1 L 240.2,605.6 L 242.7,607.7 L 243.3,614.7 L 241.0,614.8 L 240.4,617.9 L 239.6,614.2 L 237.9,613.6 L 234.9,616.6 L 228.7,614.6 L 223.7,620.4 L 219.2,619.9 L 217.0,622.5 L 214.5,622.1 L 211.1,616.7 L 201.6,614.7 L 197.0,608.9 L 187.7,602.8 L 187.1,603.7 L 189.1,606.0 L 194.5,609.8 L 196.8,615.5 L 193.9,616.7 L 190.8,612.5 L 185.1,608.9 L 186.0,610.4 L 182.5,610.3 L 185.8,613.3 L 179.9,616.5 L 178.0,614.2 L 179.0,612.2 L 176.4,611.6 L 175.7,609.5 L 173.8,611.3 L 175.7,612.9 L 175.1,614.5 L 171.5,613.1 L 172.0,611.1 L 170.8,610.0 L 172.3,608.6 L 171.7,607.5 L 169.6,607.7 L 167.9,604.2 L 166.5,607.5 L 166.0,604.4 L 163.4,603.5 L 163.8,605.6 L 158.5,607.1 L 157.5,610.4 L 155.0,612.4 L 155.0,614.6 L 158.4,617.5 L 165.1,614.7 L 166.5,616.8 L 164.8,617.2 L 165.3,619.7 L 164.2,621.0 L 160.9,617.9 L 157.7,620.6 L 159.6,622.2 L 156.7,623.4 L 151.1,623.1 L 149.2,619.9 L 144.8,618.9 L 138.8,624.1 L 131.4,625.1 L 129.8,624.6 L 128.7,621.6 L 125.1,621.5 L 123.7,624.0 L 117.3,626.2 L 115.4,624.1 L 117.9,623.4 L 117.4,621.6 L 114.2,622.6 L 109.9,616.1 L 109.3,613.2 L 111.1,610.0 L 110.2,606.1 L 111.8,601.3 L 111.6,598.1 L 114.9,590.5 L 112.2,585.4 L 112.6,578.4 L 117.2,570.3 L 118.6,563.7 L 121.2,561.4 L 120.6,555.8 L 122.3,548.6 L 124.3,546.4 L 124.3,539.9 L 126.3,535.6 L 132.3,529.5 L 132.7,526.6 L 138.7,522.9 L 144.4,510.2 L 149.4,506.3 L 152.8,498.5 L 153.2,492.7 L 155.0,488.7 L 154.1,487.5 L 159.4,482.1 L 157.3,479.5 L 159.6,477.3 L 159.8,474.6 L 158.1,474.7 L 159.8,473.7 L 160.3,470.6 L 157.1,469.9 L 158.2,468.0 L 155.7,461.6 L 156.2,458.9 L 158.3,458.4 L 162.8,463.9 L 164.6,463.8 L 166.3,461.6 L 165.0,456.6 L 170.0,455.5 L 169.2,459.4 L 171.6,464.0 L 176.6,463.2 L 176.9,465.9 L 180.5,464.9 L 179.3,467.9 L 176.7,467.7 L 177.3,470.7 L 175.2,472.5 L 178.2,473.6 L 180.5,469.7 L 183.2,469.0 L 182.3,467.3 L 183.1,464.9 L 187.9,465.4 L 189.0,463.0 L 192.3,464.2 L 190.2,462.1 L 191.1,459.1 L 198.7,458.8 L 201.6,453.1 L 206.9,454.0 L 206.3,451.9 L 207.4,448.5 L 205.9,447.0 L 205.6,449.1 L 204.2,449.1 L 203.6,447.9 L 205.3,447.3 L 201.2,446.4 L 202.7,446.1 L 202.1,444.0 L 211.6,442.5 L 214.9,446.1 L 214.8,443.0 L 218.8,443.3 Z M 170.5,611.6 L 171.3,613.2 L 168.1,613.3 L 168.4,611.5 L 170.5,611.6 Z"/>
  <path class="region" data-state="Bayern" d="M 243.6,380.1 L 247.2,379.8 L 248.7,383.1 L 253.8,384.7 L 255.6,389.5 L 257.4,390.4 L 256.9,392.9 L 260.2,392.3 L 262.0,396.2 L 264.1,395.3 L 267.7,398.0 L 267.1,403.2 L 268.0,406.6 L 270.8,406.3 L 273.7,408.7 L 274.3,404.7 L 280.5,404.7 L 280.2,402.9 L 273.4,398.6 L 273.7,395.6 L 279.3,393.2 L 284.9,393.1 L 287.8,397.1 L 287.8,395.2 L 290.2,397.0 L 293.7,395.2 L 296.1,398.2 L 294.6,399.7 L 295.2,401.6 L 297.6,403.1 L 298.2,401.2 L 300.8,403.3 L 302.4,395.2 L 300.6,386.1 L 304.5,385.1 L 305.8,382.4 L 310.0,383.0 L 309.3,388.1 L 310.8,390.6 L 312.6,389.6 L 312.6,392.4 L 314.4,392.7 L 314.7,394.5 L 318.3,392.0 L 320.4,393.3 L 328.2,390.5 L 330.3,392.9 L 336.0,390.1 L 338.3,392.9 L 338.2,396.2 L 345.5,399.4 L 346.2,402.0 L 343.5,404.2 L 349.3,409.0 L 349.3,415.9 L 352.5,417.5 L 352.3,419.9 L 355.3,420.1 L 361.3,425.7 L 364.2,426.1 L 363.5,429.9 L 367.2,431.0 L 364.8,438.2 L 363.3,438.4 L 363.3,442.1 L 359.8,445.0 L 361.9,448.9 L 366.2,450.5 L 366.1,455.0 L 368.1,455.7 L 369.3,462.3 L 372.2,463.3 L 371.6,467.5 L 373.0,471.4 L 378.1,474.0 L 379.3,477.9 L 388.0,478.2 L 392.1,481.5 L 392.3,484.8 L 395.3,486.8 L 396.4,490.7 L 399.6,492.4 L 399.6,494.9 L 402.9,497.4 L 405.5,496.9 L 411.0,502.5 L 412.0,508.2 L 410.9,508.0 L 412.1,509.0 L 415.8,511.6 L 416.5,509.3 L 420.5,509.3 L 421.0,511.0 L 422.7,510.7 L 424.7,516.2 L 428.8,516.9 L 431.6,524.4 L 433.2,525.4 L 430.7,529.4 L 432.1,531.0 L 432.7,536.0 L 431.8,540.1 L 428.8,542.5 L 428.3,545.2 L 427.3,546.2 L 416.1,539.6 L 415.2,542.0 L 412.7,542.2 L 413.6,546.2 L 411.4,557.5 L 405.0,563.4 L 395.0,565.4 L 388.5,570.7 L 383.6,571.7 L 382.1,575.1 L 377.7,578.8 L 377.9,581.2 L 383.2,586.7 L 384.3,591.5 L 387.2,593.0 L 390.4,600.4 L 385.8,610.3 L 389.6,611.9 L 391.1,610.4 L 394.5,613.6 L 395.8,617.8 L 393.7,620.4 L 394.3,622.1 L 392.8,622.3 L 393.7,623.9 L 392.2,626.2 L 393.1,629.6 L 391.1,632.0 L 388.8,631.1 L 380.1,624.2 L 379.2,622.5 L 381.5,619.7 L 378.6,617.4 L 379.2,614.8 L 370.1,614.6 L 368.7,618.2 L 365.1,618.7 L 361.5,612.8 L 352.4,614.8 L 353.0,610.5 L 352.2,609.6 L 348.1,613.0 L 349.9,620.9 L 340.0,619.3 L 332.1,621.2 L 331.8,622.7 L 320.5,621.2 L 317.7,628.2 L 310.3,628.1 L 307.8,631.5 L 309.6,633.6 L 305.4,633.1 L 303.0,634.9 L 302.0,638.1 L 299.4,638.1 L 300.5,634.5 L 293.6,637.6 L 286.8,637.7 L 284.2,631.0 L 280.9,631.0 L 281.3,629.0 L 283.8,627.9 L 281.9,626.1 L 276.2,627.9 L 267.4,623.2 L 265.5,626.3 L 259.9,624.2 L 261.2,622.0 L 258.8,622.2 L 259.8,624.5 L 258.9,629.4 L 260.4,630.2 L 260.9,634.7 L 259.0,636.1 L 258.9,639.1 L 256.7,639.4 L 253.3,645.3 L 245.4,648.0 L 247.4,644.6 L 246.6,643.4 L 248.3,637.9 L 241.6,641.1 L 240.2,636.4 L 241.6,635.9 L 241.4,632.7 L 239.0,630.1 L 236.6,630.3 L 234.7,627.3 L 235.2,625.1 L 232.6,626.6 L 230.6,625.2 L 230.2,626.7 L 227.1,625.1 L 227.6,622.2 L 226.5,621.3 L 224.6,621.9 L 223.2,625.8 L 217.1,623.1 L 219.2,619.9 L 224.3,620.1 L 228.7,614.6 L 234.9,616.6 L 237.9,613.6 L 239.6,614.2 L 240.4,617.9 L 241.0,614.8 L 243.3,614.7 L 242.7,607.7 L 240.2,605.6 L 243.5,603.1 L 242.1,600.1 L 241.3,600.7 L 242.1,599.2 L 240.7,598.9 L 242.1,597.9 L 242.4,593.4 L 241.0,591.5 L 243.8,586.6 L 244.0,579.9 L 241.1,573.2 L 240.2,565.0 L 235.3,557.0 L 238.9,552.9 L 238.6,550.5 L 242.4,548.9 L 243.5,550.7 L 245.8,550.3 L 249.2,547.5 L 248.7,545.9 L 253.0,545.1 L 252.2,538.4 L 253.6,538.2 L 250.1,533.6 L 251.0,530.3 L 254.5,531.5 L 255.1,534.6 L 258.0,531.0 L 259.7,531.3 L 258.2,534.0 L 262.6,532.0 L 258.3,525.0 L 260.3,522.0 L 259.2,518.9 L 260.6,518.4 L 260.6,515.3 L 259.2,514.1 L 260.6,513.5 L 259.8,511.7 L 260.6,511.7 L 255.4,506.3 L 255.3,504.2 L 250.0,503.4 L 250.0,499.2 L 247.6,498.7 L 250.2,495.0 L 243.4,490.4 L 244.3,489.7 L 244.0,486.1 L 242.8,485.9 L 245.0,483.9 L 243.9,482.8 L 244.5,480.1 L 242.4,479.3 L 243.6,478.3 L 242.6,476.0 L 245.5,474.7 L 244.0,471.1 L 242.0,470.5 L 243.4,469.0 L 242.2,466.6 L 243.3,465.4 L 241.3,465.4 L 241.8,463.6 L 240.3,462.4 L 237.8,467.6 L 234.6,467.9 L 232.8,466.8 L 233.3,461.3 L 231.8,461.0 L 232.7,459.2 L 230.6,459.8 L 229.8,462.6 L 227.8,461.7 L 230.6,457.1 L 228.5,454.4 L 228.7,450.5 L 226.8,447.5 L 223.4,450.8 L 222.1,447.5 L 219.3,450.9 L 217.8,449.7 L 219.1,442.4 L 214.8,443.0 L 214.9,446.1 L 211.6,442.5 L 209.6,444.0 L 208.4,442.5 L 205.0,443.1 L 202.1,444.0 L 202.7,446.1 L 201.2,446.4 L 205.3,447.3 L 203.6,447.9 L 204.8,449.4 L 206.5,447.3 L 207.7,450.0 L 206.3,451.9 L 206.9,454.0 L 201.6,453.1 L 197.6,459.4 L 192.0,459.7 L 189.3,457.3 L 191.3,454.0 L 190.4,450.1 L 192.4,449.4 L 193.9,445.8 L 191.5,444.6 L 192.9,441.6 L 190.9,441.9 L 189.9,439.5 L 190.8,437.7 L 187.9,437.5 L 188.7,435.7 L 187.1,425.8 L 188.9,425.4 L 187.9,421.5 L 185.2,420.7 L 187.2,415.9 L 192.6,414.8 L 194.4,415.3 L 194.2,417.8 L 195.7,413.8 L 197.7,412.8 L 204.8,414.2 L 207.0,418.4 L 212.1,417.5 L 211.7,412.9 L 212.8,411.3 L 211.3,410.7 L 212.1,408.9 L 211.1,405.3 L 215.2,407.0 L 219.3,406.1 L 218.1,404.9 L 218.9,403.0 L 223.6,399.6 L 223.7,391.0 L 230.7,392.5 L 234.6,390.6 L 240.5,380.7 L 242.3,378.9 L 243.6,380.1 Z"/>
  <path class="region" data-state="Brandenburg" d="M 435.4,139.0 L 437.4,145.6 L 441.6,144.5 L 444.4,146.5 L 447.8,143.9 L 453.9,145.0 L 453.7,149.8 L 446.7,158.6 L 454.8,158.9 L 458.0,154.4 L 463.1,153.4 L 463.3,157.3 L 464.6,158.6 L 460.4,165.2 L 461.5,168.8 L 460.3,173.7 L 455.4,179.3 L 448.9,183.1 L 449.6,189.8 L 447.8,193.0 L 459.1,199.6 L 465.5,208.0 L 474.3,214.3 L 472.3,218.1 L 473.9,220.9 L 469.4,225.9 L 468.7,229.3 L 471.5,236.2 L 470.8,238.0 L 477.4,242.0 L 475.9,251.7 L 479.6,255.7 L 477.4,260.9 L 477.7,266.3 L 476.4,269.4 L 471.5,275.0 L 472.1,277.5 L 474.8,278.4 L 475.2,283.5 L 479.4,288.9 L 479.5,294.0 L 478.0,295.6 L 476.7,294.4 L 475.7,298.3 L 472.9,299.0 L 470.8,296.6 L 468.6,298.5 L 462.0,299.3 L 459.1,302.4 L 456.3,300.1 L 449.5,298.8 L 449.7,300.4 L 446.3,302.8 L 447.1,304.1 L 444.1,304.1 L 445.7,306.8 L 442.5,310.6 L 442.4,312.8 L 440.1,310.7 L 430.3,313.8 L 422.1,313.2 L 421.5,311.7 L 419.1,313.1 L 417.9,310.4 L 412.0,306.3 L 410.7,308.6 L 407.6,307.3 L 408.2,308.3 L 406.0,310.6 L 404.5,310.6 L 405.0,311.8 L 402.3,310.8 L 401.8,308.1 L 400.2,308.4 L 401.5,306.6 L 400.7,303.3 L 401.9,302.1 L 400.8,297.8 L 398.7,297.5 L 399.1,294.5 L 395.4,293.8 L 393.6,290.4 L 400.6,284.8 L 398.8,281.5 L 399.5,277.9 L 397.4,274.2 L 398.7,272.1 L 392.8,272.3 L 393.2,269.9 L 389.5,269.8 L 388.9,267.0 L 383.4,267.2 L 383.1,264.5 L 380.0,265.0 L 374.2,261.0 L 371.3,263.3 L 367.3,263.3 L 363.7,259.0 L 361.5,260.4 L 353.5,253.3 L 350.5,248.1 L 352.1,247.0 L 352.1,244.9 L 354.6,243.7 L 352.2,241.2 L 355.4,233.7 L 354.2,232.5 L 355.2,228.9 L 353.6,227.9 L 356.5,222.8 L 353.4,222.2 L 351.6,219.1 L 349.7,221.5 L 348.1,220.6 L 349.1,218.5 L 346.9,219.1 L 348.8,215.1 L 348.3,210.9 L 351.7,210.7 L 351.5,205.8 L 349.6,203.6 L 350.9,201.5 L 350.3,198.8 L 352.6,197.0 L 351.4,191.8 L 349.2,190.3 L 345.7,192.4 L 345.8,189.3 L 338.2,190.4 L 331.3,187.9 L 330.4,186.4 L 331.7,184.3 L 326.3,181.1 L 323.5,182.0 L 323.2,179.6 L 320.3,179.2 L 320.7,176.8 L 314.6,176.4 L 311.5,173.7 L 305.7,175.7 L 301.9,171.7 L 301.9,170.2 L 308.3,171.2 L 308.3,168.7 L 315.6,170.1 L 317.6,166.7 L 317.0,162.8 L 320.5,160.4 L 324.0,160.4 L 325.6,162.6 L 330.7,161.7 L 329.1,159.6 L 332.6,160.0 L 333.9,157.5 L 336.7,158.2 L 340.6,155.5 L 340.3,153.1 L 342.2,151.9 L 341.9,150.1 L 345.1,152.2 L 347.3,150.8 L 348.0,152.6 L 351.2,151.1 L 352.7,153.9 L 359.6,155.5 L 359.6,157.4 L 362.1,159.8 L 373.5,159.5 L 373.8,161.6 L 378.2,162.0 L 377.2,164.1 L 378.4,165.0 L 382.9,163.9 L 384.4,165.8 L 389.2,164.1 L 387.6,166.2 L 389.4,167.1 L 395.9,162.7 L 396.6,160.6 L 399.7,159.8 L 402.2,162.6 L 403.2,159.2 L 405.8,157.5 L 409.0,157.6 L 411.1,160.1 L 412.8,155.9 L 415.0,156.5 L 416.1,153.5 L 417.3,154.2 L 416.8,151.4 L 418.7,149.3 L 418.5,147.5 L 422.3,146.7 L 423.1,143.7 L 426.7,140.8 L 430.2,141.5 L 432.8,139.4 L 430.3,138.1 L 430.8,134.5 L 432.3,137.9 L 435.4,139.0 Z M 415.1,206.5 L 413.8,207.7 L 414.7,208.6 L 410.9,208.8 L 409.3,210.9 L 406.5,210.6 L 406.3,208.1 L 405.0,208.1 L 404.3,210.8 L 402.2,210.5 L 401.4,214.1 L 397.4,214.0 L 398.6,215.5 L 396.6,219.1 L 399.4,220.4 L 396.5,223.6 L 397.1,226.1 L 395.5,228.5 L 397.6,230.0 L 402.0,227.4 L 404.5,229.0 L 406.1,227.8 L 412.5,231.0 L 412.3,228.2 L 414.8,227.4 L 415.3,229.5 L 423.7,230.9 L 423.3,233.4 L 424.2,234.0 L 428.4,228.9 L 429.4,225.0 L 422.0,223.3 L 424.4,218.5 L 416.7,213.5 L 416.2,211.7 L 417.5,209.3 L 415.1,206.5 Z"/>
  <path class="region" data-state="Hessen" d="M 211.0,291.7 L 217.6,291.3 L 220.8,295.7 L 218.7,298.4 L 216.9,297.9 L 217.5,299.7 L 215.7,300.6 L 218.5,304.8 L 217.6,306.3 L 218.6,309.0 L 214.8,311.2 L 214.3,314.9 L 222.9,318.8 L 224.7,317.8 L 225.0,315.4 L 223.2,316.9 L 221.6,313.1 L 226.5,311.5 L 226.2,310.0 L 227.4,309.4 L 230.0,312.7 L 229.3,309.4 L 232.2,309.0 L 233.5,311.1 L 233.8,318.1 L 235.3,320.0 L 239.6,320.6 L 240.6,324.9 L 248.8,328.0 L 247.3,331.0 L 247.7,333.7 L 245.5,331.0 L 243.1,331.8 L 245.8,333.7 L 244.4,338.8 L 248.0,341.3 L 244.7,343.7 L 238.9,342.1 L 237.7,344.8 L 240.2,347.6 L 234.1,347.5 L 234.1,349.4 L 236.2,348.5 L 235.6,350.9 L 237.4,349.7 L 239.9,352.7 L 237.8,354.2 L 238.7,355.1 L 237.8,356.9 L 234.2,357.8 L 234.5,361.2 L 232.7,362.7 L 233.6,364.8 L 230.2,369.9 L 230.2,372.6 L 233.9,373.5 L 234.9,372.3 L 234.2,370.2 L 239.2,369.7 L 241.1,373.4 L 238.7,374.9 L 239.9,379.5 L 238.8,384.7 L 234.9,390.3 L 228.9,392.5 L 224.3,390.4 L 222.9,395.9 L 223.3,400.5 L 218.9,403.0 L 218.1,404.9 L 219.3,406.1 L 215.2,407.0 L 211.1,405.3 L 212.1,408.9 L 211.3,410.7 L 212.8,411.3 L 211.7,412.9 L 212.1,417.5 L 207.0,418.4 L 204.8,414.2 L 197.7,412.8 L 195.7,413.8 L 194.2,417.8 L 194.4,415.3 L 192.6,414.8 L 186.4,417.4 L 185.2,421.3 L 187.9,421.5 L 188.9,425.4 L 187.1,425.8 L 188.7,435.7 L 187.9,437.5 L 190.8,437.7 L 189.9,439.5 L 190.9,441.9 L 192.9,441.6 L 191.5,444.6 L 193.9,445.8 L 192.4,449.4 L 190.4,450.1 L 191.3,454.0 L 189.2,455.8 L 191.1,459.1 L 190.2,462.1 L 192.3,464.2 L 189.0,463.0 L 187.9,465.4 L 183.1,464.9 L 182.3,467.3 L 183.2,469.0 L 176.1,473.7 L 175.2,472.5 L 177.3,470.7 L 176.7,467.7 L 179.3,467.9 L 180.5,464.9 L 176.9,465.9 L 176.6,463.2 L 171.6,464.0 L 169.2,459.4 L 170.0,455.5 L 165.0,456.6 L 166.3,461.6 L 162.8,463.9 L 154.4,456.2 L 152.8,450.3 L 157.2,447.7 L 159.2,444.0 L 156.2,444.1 L 154.0,439.7 L 154.6,437.3 L 152.2,434.7 L 153.0,431.6 L 152.0,428.3 L 148.4,423.7 L 143.9,422.4 L 133.6,427.1 L 128.5,427.4 L 127.5,424.3 L 123.3,420.7 L 124.7,417.9 L 126.5,418.2 L 127.6,414.5 L 131.2,416.6 L 131.5,413.6 L 129.0,411.1 L 130.1,408.4 L 134.6,405.8 L 136.7,407.6 L 138.2,406.1 L 136.3,404.3 L 136.9,403.0 L 141.4,402.6 L 138.5,394.4 L 133.4,391.2 L 135.8,388.4 L 134.1,385.4 L 134.8,382.0 L 137.2,379.5 L 140.2,381.2 L 142.6,380.0 L 143.2,376.0 L 141.5,375.0 L 142.3,373.2 L 140.3,369.8 L 143.5,364.9 L 141.0,360.3 L 148.4,353.0 L 153.8,354.8 L 155.7,351.5 L 158.4,350.6 L 158.2,346.3 L 162.7,342.2 L 160.8,340.2 L 161.9,338.6 L 160.6,337.1 L 161.8,335.6 L 171.9,334.6 L 170.6,332.5 L 174.4,326.6 L 172.2,323.0 L 172.8,322.1 L 170.6,320.9 L 165.1,323.3 L 163.7,319.9 L 170.3,312.7 L 183.3,311.7 L 183.9,308.3 L 182.3,308.4 L 181.0,304.1 L 185.0,301.9 L 187.6,300.9 L 190.9,302.6 L 190.4,305.7 L 191.3,307.2 L 197.2,305.8 L 197.7,303.3 L 201.8,301.4 L 202.3,298.0 L 204.9,294.9 L 203.1,293.2 L 210.4,289.7 L 211.0,291.7 Z"/>
  <path class="region" data-state="Mecklenburg-Vorpommern" d="M 365.8,58.7 L 367.2,61.1 L 372.7,62.1 L 388.4,62.5 L 380.2,65.0 L 373.7,64.1 L 374.4,63.3 L 373.1,64.9 L 375.3,64.6 L 374.3,67.4 L 375.8,65.7 L 376.8,68.0 L 379.5,65.9 L 380.6,70.1 L 384.1,68.4 L 385.1,65.5 L 391.4,62.4 L 391.7,65.9 L 395.2,68.3 L 394.2,70.1 L 396.1,73.4 L 395.8,75.3 L 399.5,76.2 L 397.7,77.6 L 399.8,76.5 L 401.4,78.6 L 405.0,79.1 L 408.1,83.6 L 406.7,85.2 L 411.7,84.0 L 410.0,86.7 L 411.4,85.5 L 413.8,90.9 L 416.0,91.3 L 415.4,88.2 L 427.2,84.9 L 426.0,86.1 L 431.7,89.9 L 430.6,94.3 L 428.5,95.9 L 437.2,104.6 L 432.6,109.2 L 438.4,105.8 L 436.2,101.0 L 436.8,99.1 L 439.8,99.1 L 439.5,103.7 L 440.7,101.3 L 443.8,103.0 L 444.0,98.6 L 441.8,97.4 L 440.3,93.1 L 437.0,93.0 L 437.7,95.4 L 434.5,98.4 L 435.4,95.0 L 434.3,94.3 L 429.8,96.7 L 432.0,90.2 L 429.9,88.9 L 428.7,85.3 L 431.5,83.7 L 435.0,90.0 L 442.3,93.9 L 452.9,104.0 L 451.1,105.2 L 452.7,109.3 L 443.6,108.6 L 436.4,111.4 L 431.7,109.9 L 443.6,118.3 L 450.6,119.9 L 453.5,117.8 L 456.1,119.6 L 452.6,122.6 L 455.6,122.9 L 456.4,128.2 L 458.2,129.4 L 457.1,135.7 L 460.8,142.4 L 462.9,153.0 L 458.0,154.4 L 454.8,158.9 L 446.7,158.6 L 453.7,149.8 L 453.9,145.0 L 447.8,143.9 L 444.4,146.5 L 441.6,144.5 L 437.4,145.6 L 435.4,138.9 L 432.3,137.9 L 430.8,134.5 L 430.3,138.1 L 432.8,139.4 L 430.2,141.5 L 426.7,140.8 L 423.1,143.7 L 422.3,146.7 L 418.5,147.5 L 418.7,149.3 L 416.8,151.4 L 417.3,154.2 L 416.1,153.5 L 415.0,156.5 L 412.8,155.9 L 411.1,160.1 L 409.0,157.6 L 405.8,157.5 L 403.2,159.2 L 402.2,162.6 L 399.7,159.8 L 396.6,160.6 L 395.9,162.7 L 389.4,167.1 L 387.6,166.2 L 389.2,164.1 L 384.4,165.8 L 382.9,163.9 L 378.4,165.0 L 377.2,164.1 L 378.2,162.0 L 373.8,161.6 L 373.5,159.5 L 362.1,159.8 L 359.6,157.4 L 359.6,155.5 L 352.7,153.9 L 351.2,151.1 L 348.0,152.6 L 347.3,150.8 L 345.1,152.2 L 341.9,150.1 L 342.2,151.9 L 340.3,153.1 L 340.6,155.5 L 336.7,158.2 L 333.9,157.5 L 332.6,160.0 L 329.1,159.6 L 330.7,161.7 L 326.2,162.6 L 324.0,160.4 L 320.5,160.4 L 316.3,163.4 L 317.6,166.7 L 315.6,170.1 L 308.3,168.7 L 308.6,170.9 L 307.7,171.2 L 297.5,168.9 L 296.8,167.1 L 298.1,165.3 L 291.4,161.2 L 287.6,152.6 L 283.8,151.3 L 279.7,154.7 L 273.0,149.0 L 267.3,149.5 L 269.5,142.0 L 272.3,142.0 L 272.9,140.2 L 278.9,137.7 L 278.9,132.6 L 284.0,132.2 L 285.2,124.6 L 275.5,118.6 L 276.1,113.8 L 274.8,111.3 L 276.0,108.0 L 281.5,104.2 L 282.9,106.4 L 286.1,105.6 L 282.2,104.5 L 282.5,101.9 L 290.0,97.8 L 297.1,97.0 L 298.9,99.5 L 301.2,99.5 L 300.3,102.2 L 301.2,103.7 L 305.1,101.7 L 311.2,106.4 L 312.7,100.9 L 310.6,101.5 L 310.7,98.5 L 309.8,101.5 L 307.8,101.1 L 307.3,98.5 L 313.1,96.4 L 311.9,100.4 L 313.0,100.9 L 313.1,98.8 L 315.3,96.6 L 314.5,95.7 L 317.2,95.6 L 320.0,91.0 L 318.8,89.9 L 315.2,94.3 L 314.8,92.4 L 322.9,85.8 L 331.6,86.4 L 343.6,83.3 L 343.9,85.9 L 345.5,86.0 L 346.4,84.2 L 344.0,83.5 L 356.5,74.0 L 365.8,58.7 Z M 373.1,64.9 L 371.8,63.6 L 368.7,65.3 L 369.5,67.0 L 366.0,68.1 L 361.5,67.4 L 360.6,70.8 L 359.1,70.3 L 359.5,71.9 L 357.6,73.3 L 358.8,75.5 L 357.8,76.6 L 362.7,78.0 L 360.1,75.4 L 363.7,73.4 L 363.4,71.4 L 366.6,70.6 L 367.5,67.3 L 369.5,69.1 L 373.4,66.4 L 373.1,64.9 Z M 455.1,121.9 L 454.3,122.4 L 455.1,121.9 Z M 438.0,95.7 L 437.4,96.7 L 438.0,95.7 Z M 437.6,77.8 L 436.8,78.6 L 437.6,77.8 Z M 399.0,61.4 L 396.6,62.2 L 399.8,57.9 L 401.9,58.6 L 401.0,60.7 L 404.1,59.1 L 402.0,58.6 L 402.2,56.6 L 398.5,57.1 L 397.7,53.6 L 403.4,53.2 L 406.0,56.3 L 405.6,53.2 L 408.5,50.8 L 409.2,51.0 L 407.7,53.5 L 409.7,52.6 L 411.5,58.0 L 413.5,59.6 L 416.3,59.0 L 416.1,53.5 L 410.6,51.5 L 409.3,48.1 L 402.8,52.7 L 404.9,45.5 L 402.0,47.3 L 402.1,50.3 L 398.6,52.6 L 401.7,49.1 L 401.6,46.1 L 403.2,44.4 L 412.3,42.4 L 412.5,44.1 L 409.6,46.4 L 411.9,51.1 L 422.8,50.5 L 425.2,52.3 L 424.6,55.8 L 419.5,60.6 L 421.6,65.2 L 424.9,65.6 L 429.6,70.4 L 427.1,73.0 L 427.5,76.0 L 426.7,76.3 L 425.5,75.3 L 426.3,74.2 L 423.5,74.1 L 426.4,71.6 L 421.7,72.5 L 425.4,69.8 L 413.7,70.9 L 414.3,72.0 L 410.6,76.1 L 408.4,76.3 L 408.8,78.1 L 409.1,76.7 L 411.8,77.5 L 410.5,80.2 L 405.2,77.8 L 406.8,78.3 L 407.5,75.6 L 404.2,77.6 L 400.6,76.2 L 400.3,74.1 L 397.5,75.2 L 399.8,73.7 L 396.2,71.2 L 396.9,68.0 L 403.8,67.0 L 401.2,63.2 L 398.5,63.9 L 399.0,61.4 Z M 400.8,60.8 L 399.4,61.2 L 400.8,60.8 Z M 418.2,71.2 L 417.0,72.9 L 418.2,71.2 Z M 409.2,83.2 L 408.3,83.4 L 409.2,83.2 Z M 397.3,48.9 L 398.5,51.0 L 397.5,49.5 L 396.0,50.6 L 396.4,54.4 L 394.7,56.0 L 393.6,60.9 L 395.4,50.1 L 397.3,48.9 Z M 392.9,60.7 L 392.3,62.3 L 388.7,62.5 L 392.9,60.7 Z M 376.8,64.5 L 375.9,65.2 L 376.8,64.5 Z M 366.2,68.8 L 366.3,70.1 L 366.2,68.8 Z M 314.7,92.6 L 314.1,95.2 L 314.7,92.6 Z"/>
  <path class="region" data-state="Niedersachsen" d="M 169.1,107.1 L 173.0,111.1 L 179.5,112.4 L 186.3,111.7 L 190.6,109.5 L 190.4,107.8 L 200.2,109.0 L 206.9,119.0 L 211.5,122.7 L 213.5,129.0 L 224.9,133.8 L 224.6,137.8 L 226.6,138.6 L 226.3,140.8 L 229.6,144.1 L 231.5,141.6 L 232.9,143.4 L 231.9,145.3 L 235.8,145.2 L 239.5,141.2 L 245.8,146.7 L 249.4,146.9 L 253.7,143.8 L 266.4,149.8 L 273.0,149.0 L 279.7,154.7 L 284.4,151.3 L 287.6,152.6 L 291.4,161.2 L 298.1,165.3 L 296.8,167.1 L 297.5,168.9 L 301.6,169.6 L 304.8,175.1 L 311.5,173.7 L 318.7,177.4 L 316.8,180.4 L 314.3,180.1 L 313.9,184.9 L 304.4,190.3 L 290.1,187.1 L 287.5,187.6 L 285.0,192.1 L 275.9,192.1 L 275.7,196.9 L 277.5,199.9 L 277.5,202.8 L 279.3,202.6 L 283.9,212.1 L 286.8,210.9 L 284.5,215.4 L 288.4,221.5 L 285.2,221.5 L 284.7,224.2 L 292.0,231.1 L 291.0,233.3 L 287.3,234.1 L 290.1,236.6 L 288.6,238.1 L 292.6,243.2 L 288.9,245.6 L 289.0,247.1 L 291.4,248.0 L 290.5,250.7 L 285.3,253.0 L 286.9,254.6 L 286.6,257.0 L 272.1,257.3 L 269.9,257.9 L 270.6,259.1 L 269.0,260.6 L 265.6,260.8 L 270.3,264.9 L 268.1,266.4 L 270.3,269.4 L 266.2,273.8 L 266.3,279.4 L 269.1,281.5 L 271.0,285.1 L 271.0,288.5 L 272.8,290.8 L 269.5,292.7 L 269.2,295.0 L 270.8,297.8 L 267.7,296.3 L 263.4,298.4 L 259.4,295.3 L 256.1,295.5 L 256.4,297.7 L 254.6,300.7 L 248.9,304.9 L 246.7,304.0 L 245.9,307.0 L 244.1,307.3 L 245.0,308.2 L 241.6,307.6 L 240.4,309.1 L 239.5,307.5 L 233.8,312.4 L 232.2,309.0 L 229.3,309.4 L 230.0,312.7 L 227.4,309.4 L 226.2,310.0 L 226.5,311.5 L 221.6,313.1 L 223.2,316.9 L 225.0,315.4 L 224.7,317.8 L 222.9,318.8 L 214.3,314.9 L 214.8,311.2 L 218.6,309.0 L 217.6,306.3 L 218.5,304.8 L 215.7,300.6 L 217.5,299.7 L 216.9,297.9 L 218.7,298.4 L 220.8,295.7 L 217.6,291.3 L 205.1,290.4 L 206.4,286.2 L 205.4,281.4 L 208.6,278.6 L 207.9,274.7 L 209.3,273.5 L 203.0,273.6 L 203.5,270.2 L 199.7,267.6 L 199.9,264.2 L 196.2,264.9 L 194.7,263.4 L 195.8,261.9 L 194.5,258.9 L 195.4,255.8 L 192.5,254.0 L 193.7,251.6 L 189.3,249.6 L 186.5,250.9 L 186.4,247.8 L 184.8,245.7 L 188.0,246.9 L 187.5,243.5 L 189.4,242.9 L 183.7,238.7 L 185.4,235.0 L 188.5,234.0 L 191.8,228.8 L 190.4,225.5 L 192.5,222.7 L 190.3,220.9 L 188.1,220.6 L 182.4,228.7 L 178.1,229.7 L 170.6,229.3 L 170.3,220.5 L 167.7,218.2 L 162.8,220.7 L 160.3,219.6 L 156.4,224.9 L 149.8,223.9 L 150.3,228.4 L 157.0,231.9 L 158.4,235.8 L 157.1,244.3 L 160.9,246.4 L 155.5,250.2 L 155.0,252.6 L 148.1,250.7 L 144.3,255.6 L 135.9,256.1 L 132.9,258.7 L 130.1,257.6 L 128.4,254.6 L 134.7,252.2 L 134.3,248.9 L 135.2,247.5 L 129.2,245.4 L 130.6,243.2 L 130.2,240.7 L 131.9,239.1 L 130.6,236.7 L 133.7,236.2 L 131.5,234.2 L 131.1,231.5 L 124.6,231.3 L 119.9,228.8 L 118.5,224.4 L 114.5,222.8 L 112.7,226.4 L 114.2,227.3 L 113.1,230.9 L 98.3,240.1 L 91.2,239.7 L 86.6,241.8 L 84.6,237.6 L 87.1,230.4 L 83.4,223.3 L 80.5,226.0 L 68.4,222.1 L 66.8,216.2 L 71.2,215.5 L 68.9,213.4 L 68.7,210.2 L 69.9,208.8 L 77.1,208.0 L 85.7,209.7 L 87.9,192.5 L 96.4,180.2 L 96.2,171.9 L 94.7,169.8 L 98.0,166.7 L 96.9,165.7 L 97.6,163.7 L 97.0,160.9 L 93.6,160.5 L 95.8,153.0 L 84.4,152.5 L 83.0,150.5 L 84.3,140.5 L 85.6,138.5 L 84.8,136.4 L 89.9,136.5 L 87.7,132.9 L 91.1,128.7 L 99.3,124.1 L 110.2,125.1 L 123.7,122.0 L 135.1,121.9 L 136.6,127.6 L 139.9,127.5 L 139.2,128.6 L 140.7,129.2 L 140.4,131.2 L 143.1,134.7 L 142.2,138.0 L 137.6,138.6 L 138.0,142.0 L 147.2,147.4 L 150.5,141.9 L 150.5,137.3 L 146.1,137.5 L 146.6,132.7 L 148.2,130.2 L 151.3,129.7 L 154.4,133.4 L 160.7,134.5 L 162.8,137.0 L 160.9,139.1 L 163.5,137.6 L 163.8,135.9 L 159.0,126.4 L 159.0,123.3 L 162.8,111.9 L 165.4,108.2 L 169.1,107.1 Z M 160.9,164.0 L 166.3,166.5 L 171.7,176.9 L 173.9,175.3 L 176.2,178.0 L 178.7,177.9 L 178.6,176.4 L 182.2,178.7 L 184.6,175.9 L 183.6,172.6 L 185.1,171.9 L 182.9,169.9 L 184.7,169.5 L 182.8,167.1 L 178.4,168.8 L 176.8,166.4 L 168.8,165.5 L 166.5,163.4 L 164.7,164.7 L 164.9,162.3 L 159.2,161.3 L 160.9,164.0 Z M 159.8,103.9 L 160.7,105.1 L 159.2,105.3 L 159.8,103.9 Z M 153.6,111.7 L 152.2,112.2 L 153.6,111.7 Z M 142.6,120.4 L 141.1,121.6 L 142.6,120.4 Z M 134.7,115.8 L 135.4,119.1 L 133.6,117.1 L 134.7,115.8 Z M 128.9,115.1 L 132.6,116.7 L 126.4,115.7 L 128.9,115.1 Z M 119.2,116.3 L 124.3,116.7 L 117.2,118.0 L 119.2,116.3 Z M 112.4,118.1 L 115.2,118.8 L 107.0,120.6 L 107.9,118.3 L 112.4,118.1 Z M 103.2,120.0 L 105.1,120.7 L 101.5,120.6 L 103.2,120.0 Z M 99.2,120.9 L 100.6,121.1 L 90.1,122.4 L 99.2,120.9 Z M 86.0,124.1 L 87.9,124.4 L 75.6,126.0 L 86.0,124.1 Z M 78.0,126.6 L 77.8,128.8 L 76.1,127.8 L 78.0,126.6 Z M 74.0,127.1 L 74.9,126.3 L 74.0,127.1 Z M 74.0,127.1 L 75.3,127.5 L 74.0,127.1 Z M 70.8,129.4 L 73.4,130.8 L 68.8,132.3 L 70.2,134.5 L 64.1,131.1 L 70.8,129.4 Z"/>
  <path class="region" data-state="Nordrhein-Westfalen" d="M 168.4,218.7 L 170.3,220.5 L 170.6,229.3 L 172.2,229.9 L 182.4,228.7 L 188.1,220.6 L 192.2,222.1 L 190.4,225.5 L 192.1,227.9 L 190.0,232.5 L 186.9,233.5 L 183.7,238.7 L 189.4,242.9 L 187.5,243.5 L 188.0,246.9 L 184.8,245.7 L 186.4,247.8 L 186.5,250.9 L 189.3,249.6 L 193.7,251.6 L 192.5,254.0 L 195.4,255.8 L 194.5,258.9 L 195.8,261.9 L 194.7,263.4 L 196.2,264.9 L 199.9,264.2 L 199.7,267.6 L 203.5,270.2 L 203.0,273.6 L 209.3,273.5 L 207.9,274.7 L 208.6,278.6 L 205.1,282.6 L 206.4,286.2 L 205.1,290.4 L 208.6,290.6 L 203.1,293.2 L 204.9,294.9 L 202.3,298.0 L 201.8,301.4 L 197.7,303.3 L 197.2,305.8 L 191.3,307.2 L 190.4,305.7 L 191.2,302.9 L 187.6,300.9 L 181.0,304.1 L 182.3,308.4 L 183.9,308.3 L 183.3,311.7 L 170.3,312.7 L 168.5,315.8 L 166.7,315.9 L 163.4,320.9 L 165.1,323.3 L 172.1,321.2 L 174.4,326.6 L 170.6,332.5 L 171.9,334.6 L 161.8,335.6 L 160.6,337.1 L 161.9,338.6 L 160.8,340.2 L 162.7,342.2 L 158.2,346.3 L 158.4,350.6 L 155.7,351.5 L 153.8,354.8 L 148.4,353.0 L 141.0,360.3 L 143.5,364.6 L 142.1,368.3 L 137.0,367.9 L 136.8,365.5 L 132.9,361.7 L 132.9,356.0 L 125.8,353.0 L 126.8,349.3 L 124.0,348.0 L 120.8,350.0 L 122.1,351.4 L 122.3,356.0 L 116.9,358.1 L 118.3,360.4 L 116.9,362.4 L 105.6,367.3 L 102.6,366.6 L 101.5,368.5 L 102.4,369.6 L 101.7,372.4 L 100.5,373.1 L 94.3,374.4 L 93.8,372.3 L 90.8,376.4 L 88.9,375.6 L 87.8,377.5 L 85.9,376.1 L 83.4,379.3 L 79.6,379.9 L 79.7,382.0 L 77.3,382.4 L 78.6,384.5 L 78.2,387.3 L 76.2,388.6 L 73.0,385.4 L 70.4,386.8 L 71.4,388.9 L 70.3,389.9 L 72.5,391.4 L 71.8,393.6 L 73.3,396.4 L 68.0,398.1 L 66.4,395.3 L 64.7,397.5 L 62.9,393.8 L 54.9,397.7 L 55.4,395.6 L 51.9,393.6 L 53.4,398.1 L 52.5,398.7 L 49.2,394.0 L 51.0,388.6 L 48.7,384.7 L 43.3,384.0 L 40.6,380.0 L 46.1,374.7 L 40.7,374.2 L 40.7,371.2 L 37.9,367.1 L 33.3,365.8 L 32.4,361.7 L 29.9,360.1 L 33.2,358.5 L 32.8,356.0 L 35.6,355.8 L 36.1,349.7 L 32.6,348.8 L 31.9,346.7 L 33.4,344.7 L 26.9,345.1 L 25.2,339.2 L 30.3,340.5 L 32.6,335.6 L 40.6,330.8 L 39.2,329.1 L 41.7,327.7 L 36.5,329.0 L 35.8,323.3 L 43.7,313.4 L 43.8,310.4 L 42.8,310.5 L 43.7,305.0 L 42.9,301.1 L 36.5,293.9 L 37.9,289.4 L 33.8,288.0 L 34.4,284.8 L 30.0,282.8 L 32.1,280.6 L 30.4,275.4 L 35.3,272.7 L 40.5,274.3 L 37.3,270.7 L 40.0,269.4 L 42.7,272.4 L 46.6,271.7 L 47.7,273.8 L 53.2,275.9 L 52.4,271.9 L 56.4,273.5 L 67.3,268.2 L 69.9,269.9 L 74.8,264.5 L 74.6,262.0 L 67.6,258.4 L 67.7,255.6 L 69.9,255.5 L 71.2,251.8 L 76.7,251.2 L 77.2,248.8 L 81.4,246.1 L 82.8,243.0 L 91.2,239.7 L 98.3,240.1 L 113.1,230.9 L 114.2,227.3 L 112.7,226.4 L 114.5,222.8 L 118.5,224.4 L 119.9,228.8 L 124.6,231.3 L 131.1,231.5 L 131.5,234.2 L 133.7,236.2 L 130.6,236.7 L 131.9,239.1 L 130.2,240.7 L 130.6,243.2 L 129.2,245.4 L 135.5,248.4 L 134.3,248.9 L 134.7,252.2 L 128.4,254.6 L 130.1,257.6 L 133.5,258.6 L 135.9,256.1 L 144.3,255.6 L 148.1,250.7 L 155.0,252.6 L 155.5,250.2 L 160.9,246.4 L 157.1,244.3 L 158.4,235.8 L 157.0,231.9 L 150.3,228.4 L 150.9,226.6 L 149.5,224.2 L 156.4,224.9 L 160.3,219.6 L 162.8,220.7 L 168.4,218.7 Z"/>
  <path class="region" data-state="Rheinland-Pfalz" d="M 124.0,348.0 L 126.8,349.3 L 125.8,353.0 L 132.9,356.0 L 132.9,361.7 L 136.8,365.5 L 137.0,367.9 L 140.5,367.7 L 140.4,371.0 L 142.3,373.2 L 141.5,375.0 L 143.2,376.6 L 141.5,381.2 L 137.2,379.5 L 134.8,382.0 L 134.1,385.4 L 135.8,388.4 L 133.4,391.2 L 138.5,394.4 L 141.4,402.6 L 136.9,403.0 L 136.3,404.3 L 138.2,406.1 L 136.7,407.6 L 134.6,405.8 L 130.1,408.4 L 129.0,411.1 L 131.5,413.6 L 131.2,416.6 L 127.6,414.5 L 126.5,418.2 L 124.7,417.9 L 123.3,420.7 L 127.5,424.3 L 128.5,427.4 L 133.6,427.1 L 143.9,422.4 L 147.5,422.8 L 152.0,428.3 L 153.0,431.6 L 152.2,434.7 L 154.6,437.3 L 154.0,439.7 L 156.2,444.1 L 159.2,444.0 L 157.2,447.7 L 152.8,450.3 L 156.2,458.9 L 155.7,461.6 L 158.2,468.0 L 157.1,469.9 L 160.3,470.6 L 159.8,473.7 L 158.1,474.7 L 159.8,474.6 L 159.6,477.3 L 157.3,479.5 L 159.4,482.1 L 154.4,486.9 L 155.0,488.7 L 153.2,492.7 L 152.8,498.5 L 149.4,506.3 L 146.6,509.2 L 138.9,507.6 L 131.0,502.1 L 127.5,503.9 L 124.0,501.4 L 117.4,502.9 L 110.2,498.8 L 108.1,495.5 L 108.2,492.9 L 101.2,492.8 L 98.0,486.6 L 100.0,485.6 L 100.5,483.2 L 102.8,482.8 L 104.0,475.8 L 98.1,474.3 L 98.3,472.1 L 96.2,470.7 L 99.0,467.6 L 97.7,464.9 L 99.0,462.4 L 97.5,462.2 L 97.0,458.3 L 94.2,459.9 L 92.2,457.0 L 87.8,457.3 L 84.7,453.9 L 82.7,455.5 L 82.9,454.3 L 80.0,454.5 L 80.0,456.0 L 76.2,456.6 L 67.4,462.6 L 65.2,461.6 L 63.0,464.2 L 60.8,462.3 L 57.3,463.5 L 51.2,461.9 L 50.4,459.8 L 53.2,456.3 L 53.5,452.3 L 58.3,447.5 L 57.3,446.7 L 58.9,440.6 L 52.6,439.7 L 50.4,436.9 L 47.8,438.4 L 47.7,436.0 L 44.0,433.8 L 43.0,429.0 L 41.6,427.4 L 40.2,428.8 L 36.9,420.1 L 37.9,415.0 L 39.5,413.8 L 39.3,410.8 L 41.5,409.5 L 40.5,405.7 L 45.9,403.3 L 47.2,399.0 L 53.4,398.7 L 51.3,393.9 L 55.4,395.6 L 54.9,397.7 L 62.9,393.8 L 64.7,397.5 L 66.4,395.3 L 68.0,398.1 L 73.3,396.4 L 71.8,393.6 L 72.5,391.4 L 70.3,389.9 L 71.4,388.9 L 70.4,386.8 L 73.0,385.4 L 76.2,388.6 L 78.2,387.3 L 78.6,384.5 L 77.3,382.4 L 79.7,382.0 L 79.6,379.9 L 83.4,379.3 L 85.9,376.1 L 87.8,377.5 L 88.9,375.6 L 90.8,376.4 L 93.8,372.3 L 94.3,374.4 L 100.5,373.1 L 101.7,372.4 L 102.4,369.6 L 101.5,368.5 L 102.6,366.6 L 105.6,367.3 L 116.9,362.4 L 118.3,360.4 L 116.9,358.1 L 122.3,356.0 L 122.1,351.4 L 120.8,350.0 L 124.0,348.0 Z"/>
  <path class="region" data-state="Saarland" d="M 85.0,454.1 L 87.8,457.3 L 92.2,457.0 L 94.2,459.9 L 97.0,458.3 L 97.5,462.2 L 99.0,462.4 L 97.7,464.9 L 99.0,467.6 L 96.2,470.7 L 98.3,472.1 L 98.1,474.3 L 104.0,475.8 L 102.8,482.8 L 100.5,483.2 L 100.0,485.6 L 98.0,486.6 L 98.4,489.3 L 101.8,492.7 L 101.6,494.8 L 98.1,497.3 L 93.2,497.3 L 88.1,494.1 L 86.0,497.5 L 84.8,491.3 L 79.2,488.5 L 74.9,489.2 L 75.9,492.1 L 74.6,494.3 L 69.6,493.2 L 68.3,491.2 L 68.8,488.8 L 67.3,488.9 L 65.7,485.7 L 66.0,483.8 L 60.8,478.2 L 62.5,476.7 L 59.5,473.9 L 60.2,472.5 L 59.2,471.2 L 53.9,467.9 L 50.0,468.7 L 50.8,461.9 L 57.3,463.5 L 60.8,462.3 L 63.0,464.2 L 65.2,461.6 L 67.4,462.6 L 76.2,456.6 L 80.0,456.0 L 80.0,454.5 L 85.0,454.1 Z"/>
  <path class="region" data-state="Sachsen-Anhalt" d="M 320.3,178.6 L 323.2,179.6 L 323.5,182.0 L 326.3,181.1 L 331.7,184.3 L 330.4,186.4 L 331.3,187.9 L 338.2,190.4 L 345.8,189.3 L 345.7,192.4 L 349.2,190.3 L 351.4,191.8 L 352.6,197.0 L 350.3,198.8 L 350.9,201.5 L 349.6,203.6 L 351.5,205.8 L 351.7,210.7 L 348.3,210.9 L 348.8,215.1 L 346.9,219.1 L 349.1,218.5 L 348.1,220.6 L 349.7,221.5 L 351.6,219.1 L 353.4,222.2 L 356.5,222.8 L 353.6,227.9 L 355.2,228.9 L 354.2,232.5 L 355.4,233.7 L 352.2,241.2 L 354.6,243.7 L 352.1,244.9 L 352.1,247.0 L 350.5,248.1 L 353.5,253.3 L 361.5,260.4 L 364.3,259.3 L 367.3,263.3 L 371.3,263.3 L 374.2,261.0 L 380.0,265.0 L 383.1,264.5 L 383.4,267.2 L 388.9,267.0 L 389.5,269.8 L 393.2,269.9 L 392.8,272.3 L 398.7,272.1 L 397.4,274.2 L 399.5,277.9 L 398.8,281.5 L 400.6,284.8 L 392.4,291.3 L 391.2,288.8 L 388.1,291.2 L 382.3,287.7 L 379.4,290.7 L 374.8,289.4 L 372.3,293.0 L 369.5,292.3 L 364.5,294.9 L 362.4,293.7 L 361.4,295.7 L 351.9,297.1 L 349.7,300.0 L 349.9,303.7 L 347.1,305.4 L 349.5,308.8 L 348.6,310.0 L 349.4,316.3 L 347.3,317.1 L 350.2,325.6 L 348.7,328.3 L 350.5,328.3 L 349.8,331.6 L 352.0,332.5 L 351.0,334.0 L 354.4,335.6 L 352.5,339.7 L 354.9,340.4 L 351.1,347.8 L 349.0,344.8 L 348.1,346.3 L 344.5,344.7 L 340.2,345.6 L 340.2,344.1 L 338.0,343.5 L 338.7,342.0 L 333.2,338.3 L 327.0,339.8 L 322.2,334.0 L 312.1,334.3 L 311.2,331.3 L 313.0,329.8 L 312.1,327.7 L 306.7,325.3 L 312.5,318.9 L 308.6,315.3 L 308.3,311.9 L 305.8,311.9 L 304.6,309.8 L 300.6,311.0 L 291.8,308.3 L 287.5,309.3 L 288.4,308.3 L 286.3,308.1 L 286.6,304.1 L 284.8,302.6 L 285.4,299.5 L 282.1,295.9 L 284.8,294.7 L 284.2,292.8 L 272.8,290.8 L 271.0,288.5 L 271.0,285.1 L 269.1,281.5 L 266.3,279.4 L 266.2,273.8 L 270.3,269.4 L 268.1,266.4 L 270.3,264.9 L 266.8,263.3 L 265.9,260.2 L 269.0,260.6 L 270.6,259.1 L 269.9,257.9 L 272.1,257.3 L 286.6,257.0 L 286.9,254.6 L 285.3,253.0 L 290.5,250.7 L 291.4,248.0 L 289.0,247.1 L 288.9,245.6 L 292.6,243.2 L 288.6,238.1 L 290.1,236.6 L 287.3,234.1 L 291.0,233.3 L 292.0,231.1 L 284.7,224.2 L 285.2,221.5 L 288.4,221.5 L 284.5,215.4 L 286.8,210.9 L 283.9,212.1 L 279.3,202.6 L 277.5,202.8 L 277.5,199.9 L 275.7,196.9 L 275.9,192.1 L 285.0,192.1 L 287.5,187.6 L 290.1,187.1 L 304.4,190.3 L 313.9,184.9 L 314.6,179.8 L 316.8,180.4 L 318.7,177.4 L 321.3,177.4 L 320.3,178.6 Z"/>
  <path class="region" data-state="Sachsen" d="M 384.1,288.4 L 388.1,291.2 L 391.2,288.8 L 395.4,293.8 L 399.1,294.5 L 398.7,297.5 L 400.8,297.8 L 402.0,300.6 L 400.7,303.3 L 401.5,306.6 L 400.2,308.4 L 401.8,308.1 L 402.3,310.8 L 405.0,311.8 L 404.5,310.6 L 406.0,310.6 L 408.2,308.3 L 407.6,307.3 L 410.7,308.6 L 412.0,306.3 L 417.9,310.4 L 419.1,313.1 L 421.5,311.7 L 422.1,313.2 L 430.3,313.8 L 440.1,310.7 L 442.4,312.8 L 442.5,310.6 L 445.7,306.8 L 444.1,304.1 L 447.1,304.1 L 446.3,302.8 L 449.7,300.4 L 449.5,298.8 L 456.3,300.1 L 459.1,302.4 L 462.0,299.3 L 468.6,298.5 L 470.8,296.6 L 472.9,299.0 L 475.7,298.3 L 476.9,294.4 L 478.3,295.9 L 477.3,297.7 L 479.4,300.5 L 488.2,303.0 L 490.9,306.3 L 491.2,314.4 L 494.3,318.0 L 494.8,323.7 L 493.1,326.0 L 491.9,335.6 L 489.2,344.0 L 483.6,352.2 L 482.8,357.3 L 472.9,355.2 L 475.0,348.8 L 470.3,349.6 L 472.1,344.3 L 467.3,342.0 L 467.3,339.1 L 466.7,341.7 L 464.6,340.8 L 461.9,342.7 L 459.7,340.5 L 457.9,341.3 L 456.6,338.9 L 454.2,345.5 L 462.1,348.0 L 460.7,352.4 L 454.6,352.6 L 452.4,355.8 L 444.6,359.6 L 439.3,359.4 L 438.9,360.9 L 436.2,361.0 L 436.4,364.3 L 433.9,366.3 L 424.5,365.1 L 418.5,366.8 L 418.3,370.1 L 416.7,371.4 L 417.3,373.1 L 414.2,376.3 L 409.6,372.4 L 409.8,373.9 L 406.9,375.8 L 407.1,377.5 L 403.1,376.6 L 400.4,384.1 L 392.1,383.5 L 391.8,388.3 L 389.2,391.2 L 387.1,391.8 L 381.6,387.5 L 380.8,389.7 L 378.1,389.0 L 375.3,392.5 L 370.6,390.8 L 365.6,392.3 L 364.4,396.5 L 359.9,398.8 L 360.1,400.7 L 357.8,402.4 L 357.8,405.8 L 356.3,405.6 L 355.4,409.1 L 355.9,410.3 L 353.6,410.1 L 352.8,408.3 L 353.7,406.4 L 351.1,404.3 L 352.3,404.0 L 352.1,402.5 L 349.1,402.2 L 349.1,398.6 L 345.3,399.5 L 337.9,395.9 L 338.3,392.9 L 333.7,388.6 L 337.0,387.7 L 336.5,385.6 L 337.7,385.0 L 335.6,381.6 L 333.5,382.5 L 332.9,380.4 L 335.7,379.2 L 335.7,376.8 L 340.1,372.8 L 339.7,374.6 L 341.5,375.8 L 341.1,379.5 L 343.3,379.2 L 343.6,377.3 L 347.6,377.6 L 346.7,377.0 L 347.1,373.4 L 353.5,372.8 L 356.4,368.8 L 354.0,368.2 L 352.8,365.8 L 354.0,364.9 L 351.6,364.0 L 352.2,361.6 L 354.7,361.0 L 352.8,360.1 L 352.6,357.7 L 357.7,357.2 L 359.0,354.8 L 362.3,355.8 L 364.5,351.7 L 372.6,351.1 L 373.3,349.3 L 371.8,348.0 L 371.0,343.2 L 366.7,343.1 L 367.4,341.0 L 365.8,341.5 L 365.6,337.9 L 363.8,337.9 L 363.2,336.1 L 360.7,337.2 L 357.1,334.7 L 351.0,334.0 L 352.0,332.5 L 349.8,331.6 L 350.5,328.3 L 348.7,328.3 L 350.2,325.6 L 347.3,317.1 L 349.4,316.3 L 348.6,310.0 L 349.5,308.8 L 347.1,305.4 L 349.9,303.7 L 349.3,300.6 L 351.9,297.1 L 361.4,295.7 L 362.4,293.7 L 364.5,294.9 L 369.5,292.3 L 372.3,293.0 L 374.8,289.4 L 379.4,290.7 L 382.3,287.7 L 384.1,288.4 Z"/>
  <path class="region" data-state="Schleswig-Holstein" d="M 291.5,54.6 L 299.9,56.9 L 304.0,65.5 L 297.5,64.0 L 296.4,64.5 L 297.0,65.5 L 294.0,65.4 L 292.8,64.8 L 292.8,61.9 L 288.4,62.3 L 288.8,57.9 L 291.5,54.6 Z M 155.6,12.0 L 158.0,12.9 L 154.7,12.5 L 156.9,15.3 L 152.4,19.3 L 153.1,24.6 L 156.3,26.6 L 160.4,26.3 L 155.6,29.1 L 150.2,26.9 L 149.8,28.1 L 151.3,27.8 L 149.6,28.8 L 149.6,37.7 L 148.6,36.9 L 149.5,24.0 L 155.6,12.0 Z M 161.1,26.2 L 166.9,23.7 L 184.2,24.7 L 187.9,27.3 L 197.0,28.4 L 200.0,32.8 L 203.2,32.7 L 206.4,29.6 L 207.8,33.9 L 209.3,31.1 L 216.9,26.7 L 215.7,28.7 L 216.4,30.4 L 226.0,33.2 L 228.7,36.5 L 231.9,35.9 L 232.0,33.2 L 234.4,34.6 L 238.5,43.4 L 235.8,41.0 L 233.5,43.3 L 233.3,47.0 L 224.9,50.9 L 222.0,55.9 L 217.9,56.3 L 217.6,54.9 L 213.4,56.7 L 215.1,57.4 L 214.9,59.5 L 215.2,57.4 L 217.5,56.5 L 222.1,58.2 L 221.3,56.2 L 223.8,53.7 L 233.5,47.4 L 234.0,43.3 L 238.5,43.6 L 237.5,44.3 L 238.4,44.6 L 238.1,53.3 L 235.0,57.2 L 228.5,60.1 L 230.0,61.8 L 243.2,58.7 L 246.9,61.1 L 245.3,62.8 L 246.5,66.5 L 244.3,68.1 L 244.8,70.8 L 243.5,72.9 L 246.1,71.5 L 245.8,68.8 L 248.4,64.5 L 253.0,62.7 L 267.6,68.7 L 272.8,73.4 L 277.1,72.9 L 284.3,67.1 L 289.2,68.3 L 294.5,66.4 L 291.9,70.1 L 290.9,69.4 L 292.7,82.1 L 281.7,91.1 L 277.9,90.5 L 275.2,94.3 L 277.0,98.6 L 281.7,99.4 L 282.7,102.1 L 282.2,104.5 L 286.1,105.6 L 282.9,106.4 L 281.5,104.2 L 276.0,108.0 L 274.8,111.3 L 276.1,113.8 L 275.5,118.6 L 285.2,124.6 L 284.0,132.2 L 278.9,132.6 L 278.9,137.7 L 272.9,140.2 L 272.3,142.0 L 269.5,142.0 L 268.5,148.0 L 266.4,149.8 L 253.1,143.8 L 254.0,142.3 L 252.4,142.6 L 247.9,136.6 L 245.3,136.3 L 244.9,131.8 L 247.5,131.5 L 246.8,129.1 L 248.4,128.2 L 244.0,123.7 L 246.9,120.4 L 245.9,118.9 L 241.0,120.4 L 240.4,123.7 L 236.8,123.4 L 236.2,126.2 L 231.9,125.9 L 227.8,131.3 L 224.4,127.8 L 222.5,133.5 L 220.0,133.0 L 213.5,129.0 L 211.5,122.7 L 206.9,119.0 L 200.2,109.0 L 182.9,106.3 L 176.2,96.3 L 179.2,94.5 L 183.6,95.4 L 184.8,93.3 L 181.8,87.5 L 178.3,88.3 L 175.6,84.0 L 177.1,77.7 L 180.5,77.0 L 183.0,72.7 L 178.4,76.3 L 177.5,74.7 L 177.6,76.8 L 176.4,74.5 L 167.3,76.0 L 164.0,73.0 L 165.2,69.0 L 166.9,70.5 L 169.4,69.1 L 165.3,68.0 L 165.5,66.7 L 178.6,65.3 L 186.7,59.6 L 184.5,55.7 L 180.8,60.6 L 175.6,59.9 L 175.5,57.6 L 178.9,55.2 L 179.9,49.9 L 175.9,49.5 L 177.4,48.1 L 176.4,45.5 L 169.5,38.7 L 170.4,37.9 L 169.8,35.4 L 165.3,29.6 L 165.3,27.2 L 161.1,26.2 Z M 214.8,26.0 L 213.8,26.7 L 214.8,26.0 Z M 175.7,52.9 L 177.1,53.2 L 174.7,53.2 L 175.7,52.9 Z M 171.8,45.7 L 170.6,46.7 L 171.8,45.7 Z M 170.8,41.8 L 170.6,43.4 L 169.2,43.4 L 170.8,41.8 Z M 169.7,52.8 L 170.4,54.3 L 168.7,57.9 L 166.2,58.4 L 164.4,56.5 L 164.6,54.7 L 169.7,52.8 Z M 169.6,92.8 L 169.2,94.4 L 169.6,92.8 Z M 168.3,44.2 L 167.5,46.1 L 161.4,47.1 L 168.3,44.2 Z M 165.6,91.0 L 164.3,91.8 L 165.6,91.0 Z M 161.9,36.6 L 164.8,39.5 L 163.3,42.8 L 154.6,40.7 L 155.8,37.6 L 161.9,36.6 Z M 162.5,51.0 L 163.6,52.7 L 160.3,51.4 L 162.5,51.0 Z M 158.7,59.4 L 158.9,61.4 L 161.2,62.9 L 158.3,63.8 L 157.3,61.3 L 158.7,59.4 Z M 158.7,53.7 L 160.1,54.9 L 158.4,57.8 L 158.7,53.7 Z M 159.0,50.5 L 159.9,52.7 L 157.6,52.7 L 159.0,50.5 Z M 152.5,40.2 L 151.6,42.0 L 154.9,47.1 L 154.5,48.3 L 152.8,48.6 L 149.2,43.8 L 152.5,40.2 Z M 130.1,82.8 L 129.2,83.2 L 130.1,82.8 Z M 127.2,82.4 L 129.1,84.4 L 127.2,82.4 Z"/>
  <path class="region" data-state="Thüringen" d="M 276.2,290.7 L 284.8,293.7 L 282.1,295.9 L 285.4,299.5 L 284.8,302.6 L 286.6,304.1 L 286.3,308.1 L 288.4,308.3 L 287.5,309.3 L 291.8,308.3 L 300.6,311.0 L 304.6,309.8 L 305.8,311.9 L 308.3,311.9 L 308.6,315.3 L 312.5,318.9 L 306.7,325.3 L 312.1,327.7 L 313.0,329.8 L 311.2,331.6 L 313.0,335.0 L 322.2,334.0 L 327.0,339.8 L 333.2,338.3 L 338.7,342.0 L 338.0,343.5 L 340.2,344.1 L 340.2,345.6 L 344.5,344.7 L 348.1,346.3 L 349.0,344.8 L 350.8,347.8 L 354.9,341.3 L 354.6,339.8 L 352.5,339.7 L 354.4,335.6 L 357.1,334.7 L 360.7,337.2 L 363.2,336.1 L 363.8,337.9 L 365.6,337.9 L 365.8,341.5 L 367.4,341.0 L 366.7,343.1 L 371.0,343.2 L 371.8,348.0 L 373.3,349.6 L 372.6,351.1 L 364.5,351.7 L 362.3,355.8 L 359.0,354.8 L 357.7,357.2 L 352.6,357.7 L 352.8,360.1 L 354.7,361.0 L 352.2,361.6 L 351.6,364.0 L 353.4,364.0 L 353.4,367.6 L 356.1,368.2 L 356.1,370.0 L 353.5,372.8 L 349.9,372.2 L 349.5,374.3 L 347.4,373.1 L 346.7,377.0 L 347.9,377.3 L 343.6,377.3 L 342.4,379.5 L 340.6,378.6 L 341.5,375.8 L 339.7,374.6 L 340.7,373.4 L 338.5,373.7 L 339.1,374.6 L 335.7,376.8 L 335.7,379.2 L 332.9,380.4 L 333.5,382.5 L 335.6,381.6 L 337.7,385.3 L 336.5,385.6 L 337.0,387.7 L 333.7,388.6 L 335.7,389.8 L 332.4,392.0 L 330.0,392.9 L 330.6,392.0 L 327.9,390.5 L 320.4,393.3 L 318.3,392.0 L 314.7,394.5 L 314.4,392.7 L 312.6,392.4 L 312.6,389.6 L 310.8,390.6 L 309.3,388.1 L 310.0,383.0 L 305.8,382.4 L 304.5,385.1 L 300.6,386.1 L 302.4,395.2 L 300.8,403.3 L 298.2,401.2 L 297.6,403.1 L 295.2,401.6 L 294.6,399.7 L 296.1,398.2 L 293.7,395.2 L 290.2,397.0 L 287.8,395.2 L 287.8,397.1 L 284.9,393.1 L 281.6,392.8 L 273.4,396.2 L 274.0,399.2 L 280.2,402.9 L 280.2,405.3 L 274.3,404.7 L 274.0,408.7 L 270.8,406.3 L 268.4,406.9 L 267.1,403.2 L 267.7,398.0 L 264.1,395.3 L 262.0,396.2 L 260.2,392.3 L 256.9,392.9 L 257.4,390.4 L 255.6,389.5 L 253.8,384.7 L 248.7,383.1 L 247.2,379.8 L 243.9,380.7 L 243.3,378.9 L 238.7,382.9 L 239.9,379.5 L 238.7,374.9 L 241.1,374.3 L 239.2,369.7 L 234.2,370.2 L 234.9,372.3 L 233.9,373.5 L 230.2,372.6 L 230.2,369.9 L 233.6,364.8 L 232.7,362.7 L 234.5,361.2 L 234.2,357.8 L 237.8,356.9 L 238.7,355.1 L 237.8,354.2 L 239.9,352.7 L 237.4,349.7 L 235.6,350.9 L 236.2,348.5 L 234.1,349.4 L 234.1,347.5 L 240.2,347.6 L 237.7,344.8 L 238.9,342.1 L 247.1,343.1 L 246.8,341.6 L 248.0,341.3 L 247.1,339.8 L 244.4,338.8 L 245.8,333.7 L 243.1,331.8 L 245.5,331.0 L 247.7,333.7 L 247.3,331.0 L 248.8,328.6 L 240.6,324.9 L 239.6,320.6 L 235.3,320.0 L 233.8,318.1 L 232.9,313.0 L 239.5,307.5 L 240.4,309.1 L 241.6,307.6 L 245.0,308.2 L 244.1,307.3 L 245.9,307.0 L 246.7,304.0 L 248.9,304.9 L 252.2,303.1 L 255.5,299.5 L 256.1,295.5 L 259.4,295.3 L 263.4,298.4 L 267.7,296.3 L 270.5,298.1 L 271.0,296.4 L 269.5,295.9 L 269.5,292.7 L 276.2,290.7 Z"/>
  <path class="region region--city" data-state="Berlin" d="M 398.7,213.1 L 401.4,214.1 L 402.2,210.5 L 404.3,210.8 L 405.0,208.1 L 406.3,208.1 L 406.5,210.6 L 409.3,210.9 L 410.9,208.8 L 414.7,208.6 L 413.8,207.7 L 415.1,206.5 L 417.5,209.3 L 416.2,211.7 L 416.7,213.5 L 424.4,218.5 L 422.0,223.3 L 424.9,222.8 L 429.7,225.9 L 428.8,225.6 L 428.4,228.9 L 424.2,234.0 L 423.3,233.4 L 423.7,230.9 L 415.3,229.5 L 414.8,227.4 L 412.3,228.2 L 412.5,231.0 L 403.3,227.4 L 397.6,230.0 L 395.2,227.6 L 399.4,220.4 L 396.6,219.1 L 398.6,215.5 L 397.4,214.0 L 398.7,213.1 Z"/>
  <path class="region region--city" data-state="Bremen" d="M 184.7,169.5 L 182.9,169.9 L 185.1,171.9 L 183.6,172.6 L 184.6,175.9 L 182.2,178.7 L 178.6,176.4 L 178.7,177.9 L 176.2,178.0 L 173.9,175.3 L 171.7,176.9 L 166.3,166.5 L 160.9,164.0 L 159.2,161.3 L 164.9,162.3 L 164.7,164.7 L 166.5,163.4 L 168.8,165.5 L 176.8,166.4 L 178.4,168.8 L 182.8,167.1 L 184.7,169.5 Z"/>
  <path class="region region--city" data-state="Hamburg" d="M 240.4,121.3 L 246.9,119.5 L 244.0,123.7 L 248.4,128.2 L 246.8,129.1 L 247.5,131.5 L 244.9,131.8 L 244.6,134.5 L 252.7,142.9 L 254.0,142.3 L 253.7,143.5 L 249.4,146.9 L 245.8,146.7 L 239.5,141.2 L 236.5,144.9 L 231.9,145.3 L 232.5,142.5 L 231.5,141.6 L 229.6,144.1 L 226.3,140.8 L 226.6,138.6 L 224.6,137.8 L 224.9,133.8 L 222.5,133.5 L 224.4,127.8 L 227.8,131.3 L 231.9,125.9 L 236.2,126.2 L 236.8,123.4 L 240.4,123.7 L 240.4,121.3 Z"/>
  <text class="region-label" data-for="Baden-Württemberg" x="195.6" y="541.3" text-anchor="middle">BW</text>
  <text class="region-label" data-for="Bayern" x="286.5" y="511.4" text-anchor="middle">BY</text>
  <text class="region-label" data-for="Brandenburg" x="399.9" y="221.2" text-anchor="middle">BB</text>
  <text class="region-label" data-for="Hessen" x="191.6" y="382.2" text-anchor="middle">HE</text>
  <text class="region-label" data-for="Mecklenburg-Vorpommern" x="384.7" y="101.9" text-anchor="middle">MV</text>
  <text class="region-label" data-for="Niedersachsen" x="179.7" y="201.8" text-anchor="middle">NI</text>
  <text class="region-label" data-for="Nordrhein-Westfalen" x="116.5" y="308.9" text-anchor="middle">NRW</text>
  <text class="region-label" data-for="Rheinland-Pfalz" x="104.8" y="428.3" text-anchor="middle">RP</text>
  <text class="region-label" data-for="Saarland" x="80.8" y="479.6" text-anchor="middle">SL</text>
  <text class="region-label" data-for="Sachsen-Anhalt" x="327.7" y="266.3" text-anchor="middle">ST</text>
  <text class="region-label" data-for="Sachsen" x="397.4" y="348.5" text-anchor="middle">SN</text>
  <text class="region-label" data-for="Schleswig-Holstein" x="206.4" y="71.2" text-anchor="middle">SH</text>
  <text class="region-label" data-for="Thüringen" x="295.4" y="359.4" text-anchor="middle">TH</text>
  <text class="region-label" data-for="Berlin" x="411.4" y="222.9" text-anchor="middle">BE</text>
  <text class="region-label" data-for="Bremen" x="175.3" y="174.1" text-anchor="middle">HB</text>
  <text class="region-label" data-for="Hamburg" x="238.2" y="138.4" text-anchor="middle">HH</text>
</svg>
